<svg width="24" height="24" viewBox="0 0 24 24" fill="none" xmlns="http://www.w3.org/2000/svg">
<g clip-path="url(#clip0_2546_9)">
<mask id="mask0_2546_9" style="mask-type:alpha" maskUnits="userSpaceOnUse" x="0" y="0" width="24" height="24">
<path d="M0 0H24V24H0V0Z" fill="white"/>
</mask>
<g mask="url(#mask0_2546_9)">
<path d="M13.0271 2.00073C14.1525 2.00259 14.7228 2.00855 15.2156 2.02322L15.4097 2.02956C15.634 2.03753 15.8551 2.04753 16.1218 2.06003C17.1859 2.1092 17.9119 2.27753 18.5494 2.52503C19.2085 2.7792 19.7651 3.12254 20.3209 3.67838C20.8759 4.2342 21.2194 4.79253 21.4744 5.45003C21.721 6.0867 21.8893 6.81338 21.9394 7.87754C21.9512 8.14421 21.9608 8.3654 21.9688 8.58965L21.9751 8.78373C21.9896 9.27647 21.9964 9.84686 21.9985 10.9723L21.9992 11.7179C21.9994 11.809 21.9994 11.903 21.9994 12L21.9992 12.2821L21.9986 13.0278C21.9967 14.1532 21.9908 14.7236 21.9761 15.2163L21.9697 15.4104C21.9619 15.6347 21.9518 15.8559 21.9394 16.1225C21.8902 17.1867 21.721 17.9124 21.4744 18.5499C21.2201 19.2092 20.8759 19.7658 20.3209 20.3217C19.7651 20.8767 19.2059 21.2199 18.5494 21.4749C17.9119 21.7217 17.1859 21.89 16.1218 21.9399C15.8551 21.9519 15.634 21.9615 15.4097 21.9693L15.2156 21.9756C14.7228 21.9903 14.1525 21.9969 13.0271 21.9992L12.2814 21.9999C12.1903 21.9999 12.0963 21.9999 11.9993 21.9999H11.7172L10.9715 21.9993C9.84612 21.9975 9.27575 21.9915 8.783 21.9768L8.58892 21.9705C8.36467 21.9624 8.14346 21.9525 7.87681 21.9399C6.81263 21.8909 6.08764 21.7217 5.44931 21.4749C4.79096 21.2208 4.23347 20.8767 3.67763 20.3217C3.1218 19.7658 2.77931 19.2066 2.52431 18.5499C2.27681 17.9124 2.10931 17.1867 2.05931 16.1225C2.04743 15.8559 2.03774 15.6347 2.02988 15.4104L2.0236 15.2163C2.00897 14.7236 2.0023 14.1532 2.00014 13.0278L2 10.9723C2.00186 9.84686 2.00782 9.27647 2.02249 8.78373L2.02883 8.58965C2.03681 8.3654 2.0468 8.14421 2.05931 7.87754C2.10847 6.81254 2.27681 6.08753 2.52431 5.45003C2.77847 4.79171 3.1218 4.2342 3.67763 3.67838C4.23347 3.12254 4.7918 2.78003 5.44931 2.52503C6.08681 2.27753 6.81181 2.11004 7.87681 2.06003C8.14346 2.04816 8.36467 2.03847 8.58892 2.03063L8.783 2.02433C9.27575 2.00969 9.84612 2.00303 10.9715 2.00087L13.0271 2.00073ZM11.9993 7.00004C9.23641 7.00004 6.99931 9.23957 6.99931 12C6.99931 14.7629 9.23884 17 11.9993 17C14.7622 17 16.9993 14.7605 16.9993 12C16.9993 9.23714 14.7597 7.00004 11.9993 7.00004ZM11.9993 9.00003C13.6562 9.00003 14.9993 10.3427 14.9993 12C14.9993 13.6569 13.6566 15 11.9993 15C10.3424 15 8.9993 13.6574 8.9993 12C8.9993 10.3431 10.3419 9.00003 11.9993 9.00003ZM17.2493 5.50004C16.5601 5.50004 15.9994 6.05994 15.9994 6.74918C15.9994 7.43843 16.5592 7.9992 17.2493 7.9992C17.9386 7.9992 18.4993 7.4393 18.4993 6.74918C18.4993 6.05994 17.9377 5.49917 17.2493 5.50004Z" fill="white"/>
</g>
</g>
<defs>
<clipPath id="clip0_2546_9">
<rect width="24" height="24" fill="white"/>
</clipPath>
</defs>
</svg>
