<svg width="24" height="24" viewBox="0 0 24 24" fill="none" xmlns="http://www.w3.org/2000/svg">
<g clip-path="url(#clip0_2546_15)">
<mask id="mask0_2546_15" style="mask-type:alpha" maskUnits="userSpaceOnUse" x="0" y="0" width="24" height="24">
<path d="M0 0H24V24H0V0Z" fill="white"/>
</mask>
<g mask="url(#mask0_2546_15)">
<path d="M6.94146 4.99994C6.94109 5.81424 6.44706 6.54702 5.69232 6.85274C4.93758 7.15845 4.07285 6.97605 3.50588 6.39155C2.93891 5.80704 2.78292 4.93715 3.11148 4.19207C3.44004 3.44699 4.18752 2.97551 5.00145 2.99993C6.08253 3.03239 6.94194 3.91838 6.94146 4.99994ZM7.00146 8.47994H3.00146V20.9999H7.00146V8.47994ZM13.3215 8.47994H9.34146V20.9999H13.2815V14.4299C13.2815 10.7699 18.0515 10.4299 18.0515 14.4299V20.9999H22.0016V13.0699C22.0016 6.89993 14.9415 7.12994 13.2815 10.1599L13.3215 8.47994Z" fill="white"/>
</g>
</g>
<defs>
<clipPath id="clip0_2546_15">
<rect width="24" height="24" fill="white"/>
</clipPath>
</defs>
</svg>
