<svg width="100" height="73" viewBox="0 0 100 73" fill="none" xmlns="http://www.w3.org/2000/svg">
<path d="M99.0066 1.30185C99.596 1.75257 99.596 1.75257 99.8734 2.3073C100.068 4.2825 100.068 4.2825 99.3284 5.20988C98.2918 6.07569 97.2132 6.63461 96.0076 7.23053C88.7811 10.9229 81.0008 16.1334 77.4068 23.6644C77.3153 23.8475 77.2237 24.0305 77.1294 24.2191C77.2812 24.2426 77.4329 24.266 77.5893 24.2902C85.007 25.4729 91.09 28.2472 95.6609 34.447C99.4461 40.2263 100.763 46.7779 99.5787 53.5852C98.1269 59.7602 94.4044 65.1702 89.0561 68.5976C83.3125 71.9735 76.8631 73.145 70.3318 71.6421C63.9103 69.8463 58.6866 66.0489 55.2537 60.2933C50.8687 52.461 51.8405 42.3138 54.1137 33.9671C57.409 22.5886 64.6265 13.4032 74.9105 7.57724C81.0882 4.18689 87.6957 2.39961 94.6034 1.19784C95.0818 1.11364 95.0818 1.11364 95.5699 1.02774C96.8317 0.833767 97.8373 0.74264 99.0066 1.30185Z" fill="#D4FF00"/>
<path d="M47.1567 1.45781C47.8245 2.4493 47.8928 3.03265 47.913 4.19788C47.5968 5.2376 46.7859 5.66116 45.8711 6.18013C45.3266 6.46826 44.7774 6.74571 44.2271 7.02245C36.9663 10.7895 27.9394 16.4015 24.9849 24.4965C25.423 24.5324 25.423 24.5324 25.87 24.569C31.0412 25.0496 35.3876 26.6974 39.4078 30.0438C39.5755 30.1743 39.7432 30.3048 39.916 30.4392C44.1248 33.8119 46.9184 39.4646 47.7288 44.7441C48.0192 48.6905 48.0505 52.6644 46.6193 56.3934C46.4985 56.7249 46.3776 57.0563 46.2531 57.3978C43.9902 63.1417 39.4414 67.688 33.8842 70.2926C27.9115 72.8378 21.1743 72.9625 15.1211 70.6431C8.99244 68.1336 4.5783 63.5141 1.91507 57.5067C-1.74093 48.5852 0.34093 37.3071 3.94736 28.646C8.79962 17.4237 17.5371 9.26475 28.856 4.76994C43.6425 -0.860075 43.6425 -0.860075 47.1567 1.45781Z" fill="#D4FF00"/>
</svg>
