<svg width="24" height="24" viewBox="0 0 24 24" fill="none" xmlns="http://www.w3.org/2000/svg">
<path d="M12.015 2.25C6.63 2.25 2.25 6.5475 2.25 11.85C2.25 13.725 2.7975 15.5475 3.8325 17.115L2.25 21.75L7.0425 20.2125C8.55252 21.0909 10.2681 21.5541 12.015 21.555C17.4 21.555 21.78 17.2575 21.78 11.955C21.78 6.5475 17.4 2.25 12.015 2.25ZM12.015 19.725C10.4775 19.725 8.97 19.3125 7.665 18.525L7.35 18.3375L4.5 19.2525L5.43 16.5L5.2275 16.17C4.47021 14.9657 4.06734 13.5726 4.065 12.15C4.065 7.9575 7.56 4.5525 11.865 4.5525C16.1625 4.5525 19.6575 7.9575 19.6575 12.15C19.6575 16.335 16.1625 19.725 11.865 19.725H12.015ZM16.29 14.055C16.0575 13.9425 14.9175 13.3875 14.7075 13.3125C14.4975 13.2375 14.3475 13.2 14.1975 13.425C14.0475 13.65 13.6125 14.1675 13.485 14.3175C13.35 14.4675 13.2225 14.49 12.99 14.3775C12.7575 14.265 12.0225 14.025 11.1525 13.2525C10.4775 12.6525 10.02 11.91 9.885 11.685C9.75 11.46 9.87 11.34 9.9825 11.235C10.08 11.1375 10.215 10.9725 10.3275 10.8375C10.44 10.7025 10.4775 10.6125 10.56 10.4625C10.635 10.3125 10.5975 10.1775 10.5375 10.065C10.4775 9.9525 10.0275 8.85 9.84 8.4C9.66 7.965 9.4725 8.025 9.33 8.0175H8.895C8.745 8.0175 8.4975 8.0775 8.2875 8.3025C8.0775 8.5275 7.4925 9.075 7.4925 10.1925C7.4925 11.31 8.3025 12.39 8.415 12.54C8.5275 12.69 9.9975 15.0525 12.33 15.96C12.885 16.1775 13.3125 16.305 13.65 16.4025C14.205 16.575 14.7075 16.5525 15.105 16.4925C15.5475 16.425 16.4775 15.93 16.6725 15.3825C16.8675 14.835 16.8675 14.37 16.8075 14.2725C16.7475 14.175 16.5975 14.1225 16.365 14.01L16.29 14.055Z" fill="white"/>
</svg>
